<?xml version="1.0" encoding="UTF-8"?>
<svg width="12px" height="13px" viewBox="0 0 12 13" version="1.1" xmlns="http://www.w3.org/2000/svg" xmlns:xlink="http://www.w3.org/1999/xlink">
    <!-- Generator: Sketch 55.2 (78181) - https://sketchapp.com -->
    <title>ic-insert-invitation-24px</title>
    <desc>Created with Sketch.</desc>
    <g id="Page-1" stroke="none" stroke-width="1" fill="none" fill-rule="evenodd" fill-opacity="0.38">
        <g id="Test_1200px" transform="translate(-135.000000, -383.000000)" fill="#000000" fill-rule="nonzero">
            <g id="Cruise-Product-tile" transform="translate(120.000000, 147.000000)">
                <g id="Dates" transform="translate(15.000000, 235.000000)">
                    <g id="ic-insert-invitation-24px" transform="translate(0.000000, 1.000000)">
                        <path d="M9.33333333,7.15 L6,7.15 L6,10.4 L9.33333333,10.4 L9.33333333,7.15 Z M8.66666667,0 L8.66666667,1.3 L3.33333333,1.3 L3.33333333,0 L2,0 L2,1.3 L1.33333333,1.3 C0.593333333,1.3 0.00666666667,1.885 0.00666666667,2.6 L0,11.7 C0,12.415 0.593333333,13 1.33333333,13 L10.6666667,13 C11.4,13 12,12.415 12,11.7 L12,2.6 C12,1.885 11.4,1.3 10.6666667,1.3 L10,1.3 L10,0 L8.66666667,0 Z M10.6666667,11.7 L1.33333333,11.7 L1.33333333,4.55 L10.6666667,4.55 L10.6666667,11.7 Z" id="Shape"></path>
                    </g>
                </g>
            </g>
        </g>
    </g>
</svg>