<?xml version="1.0" encoding="UTF-8"?>
<svg width="8px" height="12px" viewBox="0 0 8 12" version="1.1" xmlns="http://www.w3.org/2000/svg" xmlns:xlink="http://www.w3.org/1999/xlink">
    <!-- Generator: Sketch 55.2 (78181) - https://sketchapp.com -->
    <title>Shape</title>
    <desc>Created with Sketch.</desc>
    <g id="Page-1" stroke="none" stroke-width="1" fill="none" fill-rule="evenodd" fill-opacity="0.38">
        <g id="Test_1200px" transform="translate(-137.000000, -428.000000)" fill="#000000" fill-rule="nonzero">
            <g id="Cruise-Product-tile" transform="translate(120.000000, 147.000000)">
                <g id="Depart-Port" transform="translate(17.000000, 279.000000)">
                    <path d="M4,2 C1.78857143,2 0,3.878 0,6.2 C0,9.35 4,14 4,14 C4,14 8,9.35 8,6.2 C8,3.878 6.21142857,2 4,2 Z M4,7.6 C3.1168,7.6 2.4,6.8832 2.4,6 C2.4,5.1168 3.1168,4.4 4,4.4 C4.8832,4.4 5.6,5.1168 5.6,6 C5.6,6.8832 4.8832,7.6 4,7.6 Z" id="Shape"></path>
                </g>
            </g>
        </g>
    </g>
</svg>