<?xml version="1.0" encoding="UTF-8"?>
<svg width="10px" height="10px" viewBox="0 0 10 10" version="1.1" xmlns="http://www.w3.org/2000/svg" xmlns:xlink="http://www.w3.org/1999/xlink">
    <!-- Generator: Sketch 55.2 (78181) - https://sketchapp.com -->
    <title>Tooltip-Icon</title>
    <desc>Created with Sketch.</desc>
    <g id="Page-1" stroke="none" stroke-width="1" fill="none" fill-rule="evenodd">
        <g id="Test_1200px" transform="translate(-167.000000, -485.000000)">
            <g id="Cruise-Product-tile" transform="translate(120.000000, 147.000000)">
                <g id="Group" transform="translate(15.000000, 335.000000)">
                    <g id="Price-&amp;-CTA">
                        <g id="Price">
                            <g id="Tooltip" transform="translate(31.000000, 2.000000)">
                                <g id="round-info-24px">
                                    <polygon id="Path" points="0 0 12 0 12 12 0 12"></polygon>
                                    <path d="M6,1 C3.24,1 1,3.24 1,6 C1,8.76 3.24,11 6,11 C8.76,11 11,8.76 11,6 C11,3.24 8.76,1 6,1 Z M6,8.5 C5.725,8.5 5.5,8.275 5.5,8 L5.5,6 C5.5,5.725 5.725,5.5 6,5.5 C6.275,5.5 6.5,5.725 6.5,6 L6.5,8 C6.5,8.275 6.275,8.5 6,8.5 Z M6.5,4.5 L5.5,4.5 L5.5,3.5 L6.5,3.5 L6.5,4.5 Z" id="Shape" fill="#C7C7C7" fill-rule="nonzero"></path>
                                </g>
                            </g>
                        </g>
                    </g>
                </g>
            </g>
        </g>
    </g>
</svg>